<svg width="341" height="94" viewBox="0 0 341 94" fill="none" xmlns="http://www.w3.org/2000/svg">
<g filter="url(#filter0_i_0_1)">
<path d="M0.3125 0.46875H34.6875L30 9.84375H11.25V19.2188H28.4375V26.25H11.25V35.625H34.6875L30 45H0.3125V0.46875ZM70.625 0.46875C73.75 0.46875 75.3125 2.03125 75.3125 5.15625V45H64.375V11.4062C64.375 10.3646 63.8542 9.84375 62.8125 9.84375H51.9062L51.875 60.625L40.9375 68.4375V0.46875H70.625ZM92.5 60.625L81.5625 68.4375V0.46875H92.5312L92.5 60.625ZM98.8125 5.15625C98.8125 2.03125 100.375 0.46875 103.5 0.46875H133.188L128.5 9.84375H111.312C110.271 9.84375 109.75 10.3646 109.75 11.4062V34.0625C109.75 35.1042 110.271 35.625 111.312 35.625H122.25V26.25H114.438V19.2188H133.188V45H103.5C100.375 45 98.8125 43.4375 98.8125 40.3125V5.15625ZM186.312 0.46875C189.438 0.46875 191 2.03125 191 5.15625V45H180.062V11.4062C180.062 10.3646 179.542 9.84375 178.5 9.84375H170.719V45H159.75V9.84375H150.406L150.375 60.625L139.438 68.4375V0.46875H186.312ZM213.656 45L216 35.625H227.375L219.906 9.84375L208.969 45H196.469L212.875 0.46875H226.156L243.344 45H213.656ZM247 8.28125L236.062 16.0938V0.46875H247V8.28125ZM273.562 19.2188C274.604 19.2188 275.125 18.6979 275.125 17.6562V11.4062C275.125 10.3646 274.604 9.84375 273.562 9.84375H253.25L257.938 0.46875H279.812C283.979 0.46875 286.062 2.53125 286.062 6.65625V22.3438C286.062 24.9479 284.5 26.25 281.375 26.25H265.75C264.708 26.2708 264.188 26.7917 264.188 27.8125V35.625H286.062L286.031 45H253.25V23.9062C253.25 20.7812 254.812 19.2188 257.938 19.2188H273.562ZM306.375 26.25V19.2188H314.188C315.208 19.2188 315.729 18.6979 315.75 17.6562V11.4062C315.75 10.3646 315.229 9.84375 314.188 9.84375H292.312L297 0.46875H322C325.125 0.46875 326.688 2.03125 326.688 5.15625V19.2188C326.667 20.7812 325.885 21.8229 324.344 22.3438C325.906 22.8646 326.688 23.9062 326.688 25.4688V40.3125C326.625 43.4375 325.062 45 322 45H292.312L297 35.625H314.188C315.208 35.625 315.729 35.1042 315.75 34.0625V27.8125C315.75 26.7708 315.229 26.25 314.188 26.25H306.375Z" fill="white"/>
</g>
<path d="M177.55 68H172.081C171.402 68 171.06 67.6582 171.056 66.9746L171.049 58.2588H173.448V65.6074C173.448 65.8353 173.562 65.9492 173.79 65.9492H175.841C176.069 65.9492 176.183 65.8353 176.183 65.6074V58.2588H178.575V66.9746C178.566 67.6582 178.224 68 177.55 68ZM186.437 58.2588C187.12 58.2588 187.462 58.6006 187.462 59.2842V68H185.069V60.6514C185.069 60.4235 184.955 60.3096 184.728 60.3096H182.342L182.335 71.418L179.942 73.127V58.2588H186.437ZM188.829 58.2588H191.222V65.9492H196.349L195.323 68H188.829V58.2588ZM197.716 58.2588H205.235L204.21 60.3096H200.108V62.3604H203.868V63.8984H200.108V65.9492H205.235L204.21 68H197.716V58.2588ZM210.191 68L210.704 65.9492H213.192L211.559 60.3096L209.166 68H206.432L210.021 58.2588H212.926L216.686 68H210.191ZM218.06 59.1133C218.06 58.5436 218.401 58.2588 219.085 58.2588H225.579L224.554 60.3096H220.794C220.566 60.3096 220.452 60.4235 220.452 60.6514V62.0186C220.452 62.2464 220.566 62.3604 220.794 62.3604H224.554C225.237 62.3604 225.579 62.7021 225.579 63.3857V66.9746C225.579 67.6582 225.237 68 224.554 68H218.06L219.256 65.9492H222.845C223.073 65.9492 223.187 65.8353 223.187 65.6074V64.2402C223.187 64.0124 223.073 63.8984 222.845 63.8984H219.085C218.401 63.8984 218.06 63.5566 218.06 62.873V59.1133ZM229.339 63.8984V71.418L226.946 73.127V58.2588H229.346L229.353 62.3604H232.415L232.408 58.2588H234.801V68H232.415V63.8984H229.339ZM245.916 60.3096H243.018L243.011 58.2588H250.195V60.3096H248.309V71.418L245.916 73.127V60.3096ZM253.962 63.8984V71.418L251.569 73.127V58.2588H253.969L253.976 62.3604H257.038L257.031 58.2588H259.424V68H257.038V63.8984H253.962ZM260.798 58.2588H268.317L267.292 60.3096H263.19V62.3604H266.95V63.8984H263.19V65.9492H268.317L267.292 68H260.798V58.2588ZM286.774 58.2588C287.458 58.2588 287.8 58.6006 287.8 59.2842V68H285.407V60.6514C285.407 60.4235 285.293 60.3096 285.065 60.3096H283.363V68H280.964V60.3096H278.92L278.913 71.418L276.521 73.127V58.2588H286.774ZM296.345 62.7021C296.345 63.3857 296.001 63.7275 295.312 63.7275H293.945L293.952 71.418L291.56 73.127V63.7275H290.186C289.507 63.7275 289.165 63.3857 289.16 62.7021L289.167 58.2588H291.56V61.6768C291.564 61.9046 291.678 62.0186 291.901 62.0186H293.61C293.838 62.0186 293.952 61.9046 293.952 61.6768V58.2588H296.345V62.7021ZM297.712 59.1133C297.712 58.5436 298.054 58.2588 298.737 58.2588H305.231L304.206 60.3096H300.446C300.218 60.3096 300.104 60.4235 300.104 60.6514V62.0186C300.104 62.2464 300.218 62.3604 300.446 62.3604H304.206C304.89 62.3604 305.231 62.7021 305.231 63.3857V66.9746C305.231 67.6582 304.89 68 304.206 68H297.712L298.908 65.9492H302.497C302.725 65.9492 302.839 65.8353 302.839 65.6074V64.2402C302.839 64.0124 302.725 63.8984 302.497 63.8984H298.737C298.054 63.8984 297.712 63.5566 297.712 62.873V59.1133ZM309.504 60.3096H306.605L306.599 58.2588H313.783V60.3096H311.896V71.418L309.504 73.127V60.3096ZM315.157 58.2588H322.677L321.651 60.3096H317.55V62.3604H321.31V63.8984H317.55V65.9492H322.677L321.651 68H315.157V58.2588ZM326.437 63.5156V71.418L324.044 73.127V58.2588H330.538C331.222 58.2588 331.563 58.6006 331.563 59.2842V62.873C331.563 63.5566 331.279 63.8984 330.709 63.8984H329.731L332.076 68H329L326.437 63.5156ZM329.171 63.2148V60.6514C329.171 60.4235 329.057 60.3096 328.829 60.3096H326.437V63.2148H329.171ZM340.108 62.7021C340.108 63.3857 339.764 63.7275 339.076 63.7275H337.709L337.716 71.418L335.323 73.127V63.7275H333.949C333.27 63.7275 332.928 63.3857 332.924 62.7021L332.931 58.2588H335.323V61.6768C335.328 61.9046 335.442 62.0186 335.665 62.0186H337.374C337.602 62.0186 337.716 61.9046 337.716 61.6768V58.2588H340.108V62.7021ZM205.502 85.6074C205.502 85.8353 205.616 85.9492 205.844 85.9492H207.895C208.122 85.9492 208.236 85.8353 208.236 85.6074V80.6514C208.232 80.4235 208.118 80.3096 207.895 80.3096H205.844C205.616 80.3096 205.502 80.4235 205.502 80.6514V85.6074ZM210.629 86.9746C210.629 87.6582 210.287 88 209.604 88H204.135C203.451 88 203.109 87.6582 203.109 86.9746V79.2842C203.109 78.6006 203.451 78.2588 204.135 78.2588H209.604C210.287 78.2588 210.629 78.6006 210.629 79.2842V86.9746ZM211.996 78.2588H219.516L218.49 80.3096H214.389V82.3604H218.148V83.8984H214.389V91.418L211.996 93.127V78.2588ZM230.624 80.3096H227.726L227.719 78.2588H234.903V80.3096H233.017V91.418L230.624 93.127V80.3096ZM236.277 78.2588H243.797L242.771 80.3096H238.67V82.3604H242.43V83.8984H238.67V85.9492H243.797L242.771 88H236.277V78.2588ZM245.164 79.2842C245.164 78.6006 245.506 78.2588 246.189 78.2588H252.684L251.658 80.3096H247.898C247.671 80.3096 247.557 80.4235 247.557 80.6514V85.6074C247.557 85.8353 247.671 85.9492 247.898 85.9492H252.684L251.658 88H246.189C245.506 88 245.164 87.6582 245.164 86.9746V79.2842ZM256.443 83.8984V91.418L254.051 93.127V78.2588H256.45L256.457 82.3604H259.52L259.513 78.2588H261.905V88H259.52V83.8984H256.443ZM269.773 78.2588C270.457 78.2588 270.799 78.6006 270.799 79.2842V88H268.406V80.6514C268.406 80.4235 268.292 80.3096 268.064 80.3096H265.679L265.672 91.418L263.279 93.127V78.2588H269.773ZM274.559 85.6074C274.559 85.8353 274.673 85.9492 274.9 85.9492H276.951C277.179 85.9492 277.293 85.8353 277.293 85.6074V80.6514C277.288 80.4235 277.174 80.3096 276.951 80.3096H274.9C274.673 80.3096 274.559 80.4235 274.559 80.6514V85.6074ZM279.686 86.9746C279.686 87.6582 279.344 88 278.66 88H273.191C272.508 88 272.166 87.6582 272.166 86.9746V79.2842C272.166 78.6006 272.508 78.2588 273.191 78.2588H278.66C279.344 78.2588 279.686 78.6006 279.686 79.2842V86.9746ZM281.053 78.2588H283.445V85.9492H288.572L287.547 88H281.053V78.2588ZM292.332 85.6074C292.332 85.8353 292.446 85.9492 292.674 85.9492H294.725C294.952 85.9492 295.066 85.8353 295.066 85.6074V80.6514C295.062 80.4235 294.948 80.3096 294.725 80.3096H292.674C292.446 80.3096 292.332 80.4235 292.332 80.6514V85.6074ZM297.459 86.9746C297.459 87.6582 297.117 88 296.434 88H290.965C290.281 88 289.939 87.6582 289.939 86.9746V79.2842C289.939 78.6006 290.281 78.2588 290.965 78.2588H296.434C297.117 78.2588 297.459 78.6006 297.459 79.2842V86.9746ZM298.826 79.2842C298.826 78.6006 299.168 78.2588 299.852 78.2588H306.346L305.32 80.3096H301.561C301.333 80.3096 301.219 80.4235 301.219 80.6514V85.6074C301.219 85.8353 301.333 85.9492 301.561 85.9492H303.953V83.8984H302.244V82.3604H306.346V88H299.852C299.168 88 298.826 87.6582 298.826 86.9746V79.2842ZM314.891 82.7021C314.891 83.3857 314.547 83.7275 313.858 83.7275H312.491L312.498 91.418L310.105 93.127V83.7275H308.731C308.052 83.7275 307.711 83.3857 307.706 82.7021L307.713 78.2588H310.105V81.6768C310.11 81.9046 310.224 82.0186 310.447 82.0186H312.156C312.384 82.0186 312.498 81.9046 312.498 81.6768V78.2588H314.891V82.7021Z" fill="white"/>
<defs>
<filter id="filter0_i_0_1" x="0.3125" y="0.46875" width="326.375" height="71.9688" filterUnits="userSpaceOnUse" color-interpolation-filters="sRGB">
<feFlood flood-opacity="0" result="BackgroundImageFix"/>
<feBlend mode="normal" in="SourceGraphic" in2="BackgroundImageFix" result="shape"/>
<feColorMatrix in="SourceAlpha" type="matrix" values="0 0 0 0 0 0 0 0 0 0 0 0 0 0 0 0 0 0 127 0" result="hardAlpha"/>
<feOffset dy="4"/>
<feGaussianBlur stdDeviation="2"/>
<feComposite in2="hardAlpha" operator="arithmetic" k2="-1" k3="1"/>
<feColorMatrix type="matrix" values="0 0 0 0 0 0 0 0 0 0 0 0 0 0 0 0 0 0 0.25 0"/>
<feBlend mode="normal" in2="shape" result="effect1_innerShadow_0_1"/>
</filter>
</defs>
</svg>
