<svg width="399" height="84" viewBox="0 0 399 84" fill="none" xmlns="http://www.w3.org/2000/svg">
<g filter="url(#filter0_i_0_1)">
<path d="M0.3125 0.46875H34.6875L30 9.84375H11.25V19.2188H28.4375V26.25H11.25V35.625H34.6875L30 45H0.3125V0.46875ZM70.625 0.46875C73.75 0.46875 75.3125 2.03125 75.3125 5.15625V45H64.375V11.4062C64.375 10.3646 63.8542 9.84375 62.8125 9.84375H51.9062L51.875 60.625L40.9375 68.4375V0.46875H70.625ZM92.5 60.625L81.5625 68.4375V0.46875H92.5312L92.5 60.625ZM98.8125 5.15625C98.8125 2.03125 100.375 0.46875 103.5 0.46875H133.188L128.5 9.84375H111.312C110.271 9.84375 109.75 10.3646 109.75 11.4062V34.0625C109.75 35.1042 110.271 35.625 111.312 35.625H122.25V26.25H114.438V19.2188H133.188V45H103.5C100.375 45 98.8125 43.4375 98.8125 40.3125V5.15625ZM186.312 0.46875C189.438 0.46875 191 2.03125 191 5.15625V45H180.062V11.4062C180.062 10.3646 179.542 9.84375 178.5 9.84375H170.719V45H159.75V9.84375H150.406L150.375 60.625L139.438 68.4375V0.46875H186.312ZM213.656 45L216 35.625H227.375L219.906 9.84375L208.969 45H196.469L212.875 0.46875H226.156L243.344 45H213.656ZM247 8.28125L236.062 16.0938V0.46875H247V8.28125ZM273.562 19.2188C274.604 19.2188 275.125 18.6979 275.125 17.6562V11.4062C275.125 10.3646 274.604 9.84375 273.562 9.84375H253.25L257.938 0.46875H279.812C283.979 0.46875 286.062 2.53125 286.062 6.65625V22.3438C286.062 24.9479 284.5 26.25 281.375 26.25H265.75C264.708 26.2708 264.188 26.7917 264.188 27.8125V35.625H286.062L286.031 45H253.25V23.9062C253.25 20.7812 254.812 19.2188 257.938 19.2188H273.562ZM306.375 26.25V19.2188H314.188C315.208 19.2188 315.729 18.6979 315.75 17.6562V11.4062C315.75 10.3646 315.229 9.84375 314.188 9.84375H292.312L297 0.46875H322C325.125 0.46875 326.688 2.03125 326.688 5.15625V19.2188C326.667 20.7812 325.885 21.8229 324.344 22.3438C325.906 22.8646 326.688 23.9062 326.688 25.4688V40.3125C326.625 43.4375 325.062 45 322 45H292.312L297 35.625H314.188C315.208 35.625 315.729 35.1042 315.75 34.0625V27.8125C315.75 26.7708 315.229 26.25 314.188 26.25H306.375Z" fill="white"/>
</g>
<path d="M174.356 57.864V58.214C173.992 58.298 173.88 58.396 173.88 58.774V64.304C173.88 67.23 172.424 68.336 168.714 68.336C165.088 68.336 163.604 67.146 163.604 64.304V58.774C163.604 58.396 163.52 58.284 163.142 58.214V57.864H166.32V58.214C165.956 58.284 165.858 58.396 165.858 58.774V64.164C165.858 66.026 166.698 66.67 168.728 66.67C170.786 66.67 171.626 65.914 171.626 64.108V58.774C171.626 58.396 171.528 58.284 171.164 58.214V57.864H174.356ZM186.838 67.65V68H183.8V67.65C184.262 67.594 184.066 67.202 183.786 66.894L178.116 61.014V67.09C178.116 67.44 178.172 67.524 178.578 67.65V68H175.68V67.65C176.1 67.552 176.156 67.426 176.156 67.09V58.774C176.156 58.41 176.072 58.298 175.68 58.214V57.864H179.054V58.214C178.886 58.242 178.802 58.326 178.802 58.508C178.802 58.69 178.914 58.844 179.04 58.956L184.43 64.64V58.774C184.43 58.438 184.43 58.354 183.954 58.214V57.864H186.838V58.214C186.418 58.34 186.376 58.452 186.376 58.774V67.09C186.376 67.44 186.46 67.566 186.838 67.65ZM196.63 65.704V68.336H196.28C196.21 68.056 196.098 68 195.72 68H188.272V67.65C188.622 67.566 188.748 67.468 188.748 67.09V58.788C188.748 58.424 188.594 58.312 188.272 58.214V57.864H191.464V58.214C191.1 58.312 191.016 58.396 191.016 58.788V66.194H195.72C196.084 66.194 196.21 66.054 196.28 65.704H196.63ZM207.294 65.718V68.336H206.958C206.902 68.098 206.846 68 206.398 68H197.802V67.65C198.152 67.552 198.278 67.468 198.278 67.076V58.774C198.278 58.396 198.166 58.298 197.802 58.214V57.864H206.272C206.664 57.864 206.776 57.864 206.832 57.528H207.182V60.146H206.832C206.762 59.838 206.678 59.67 206.356 59.67H200.49V62.064H203.962C204.354 62.064 204.424 61.98 204.536 61.602H204.872V64.178H204.536C204.452 63.814 204.34 63.702 203.962 63.702H200.49V66.18H206.384C206.776 66.18 206.874 66.082 206.958 65.718H207.294ZM217.142 65.732H211.752L211.346 66.852C211.122 67.314 211.262 67.566 211.682 67.65V68H208.21V67.65C208.728 67.524 208.966 67.076 209.176 66.656L212.368 58.984C212.508 58.676 212.536 58.368 211.962 58.214V57.864H216.932V58.214C216.316 58.368 216.386 58.704 216.526 59.012L219.704 66.656C219.914 67.076 220.152 67.524 220.67 67.65V68H217.198V67.65C217.618 67.566 217.8 67.314 217.576 66.852L217.142 65.732ZM216.554 64.192L214.762 59.6H214.118L212.34 64.192H216.554ZM231.756 64.822C231.756 67.384 228.564 68.238 226.534 68.238C225.106 68.238 223.72 68.056 222.418 67.44C222.138 67.314 221.9 67.272 221.704 67.538L221.298 67.37L222.404 64.864L222.796 65.004C222.74 65.186 222.768 65.396 222.95 65.536C223.776 66.152 225.554 66.432 226.604 66.432C227.402 66.432 229.32 66.236 229.32 65.102C229.32 64.458 228.466 64.01 226.744 63.926C225.372 63.884 223.622 63.87 222.488 63.016C221.872 62.554 221.592 61.854 221.592 61.014C221.592 58.984 223.51 57.626 226.366 57.626C227.542 57.626 228.858 57.808 230.258 58.41C230.762 58.648 230.958 58.69 231.266 58.452L231.588 58.62L230.328 61.042L229.95 60.86C229.95 60.65 229.894 60.51 229.74 60.342C228.956 59.6 227.402 59.348 226.366 59.348C225.61 59.348 223.888 59.572 223.888 60.65C223.888 61.658 225.162 61.854 225.89 61.882C227.262 61.98 228.452 61.952 229.6 62.316C230.776 62.708 231.756 63.576 231.756 64.822ZM243.995 67.65V68H240.831V67.65C241.181 67.566 241.293 67.482 241.293 67.076V63.786H235.763V67.076C235.763 67.468 235.847 67.538 236.239 67.65V68H233.061V67.65C233.453 67.538 233.537 67.468 233.537 67.076V58.774C233.537 58.41 233.453 58.298 233.061 58.214V57.864H236.239V58.214C235.861 58.298 235.763 58.424 235.763 58.774V61.994H241.293V58.774C241.293 58.382 241.223 58.298 240.831 58.214V57.864H243.995V58.214C243.617 58.298 243.533 58.396 243.533 58.774V67.076C243.533 67.454 243.589 67.552 243.995 67.65ZM259.408 57.528V60.174H259.058C258.988 59.824 258.862 59.684 258.498 59.684H255.376V67.076C255.376 67.468 255.488 67.552 255.852 67.65V68H252.702V67.65C253.066 67.58 253.192 67.426 253.192 67.076V59.684H250.07C249.692 59.684 249.594 59.796 249.51 60.16H249.16V57.528H249.51C249.594 57.878 249.706 57.864 250.07 57.864H258.498C258.876 57.864 258.974 57.892 259.058 57.528H259.408ZM271.736 67.65V68H268.572V67.65C268.922 67.566 269.034 67.482 269.034 67.076V63.786H263.504V67.076C263.504 67.468 263.588 67.538 263.98 67.65V68H260.802V67.65C261.194 67.538 261.278 67.468 261.278 67.076V58.774C261.278 58.41 261.194 58.298 260.802 58.214V57.864H263.98V58.214C263.602 58.298 263.504 58.424 263.504 58.774V61.994H269.034V58.774C269.034 58.382 268.964 58.298 268.572 58.214V57.864H271.736V58.214C271.358 58.298 271.274 58.396 271.274 58.774V67.076C271.274 67.454 271.33 67.552 271.736 67.65ZM282.626 65.718V68.336H282.29C282.234 68.098 282.178 68 281.73 68H273.134V67.65C273.484 67.552 273.61 67.468 273.61 67.076V58.774C273.61 58.396 273.498 58.298 273.134 58.214V57.864H281.604C281.996 57.864 282.108 57.864 282.164 57.528H282.514V60.146H282.164C282.094 59.838 282.01 59.67 281.688 59.67H275.822V62.064H279.294C279.686 62.064 279.756 61.98 279.868 61.602H280.204V64.178H279.868C279.784 63.814 279.672 63.702 279.294 63.702H275.822V66.18H281.716C282.108 66.18 282.206 66.082 282.29 65.718H282.626ZM301.071 67.65V68H297.949V67.65C298.313 67.566 298.425 67.454 298.425 67.09V60.902L294.365 67.734L290.501 60.902V67.09C290.501 67.468 290.599 67.552 290.963 67.65V68H288.009V67.65C288.359 67.566 288.485 67.468 288.485 67.09V58.774C288.485 58.396 288.359 58.298 288.009 58.214V57.864H291.901V58.214C291.593 58.256 291.495 58.578 291.649 58.858L294.505 63.982L297.473 58.956C297.655 58.634 297.599 58.326 297.263 58.214V57.864H301.071V58.214C300.623 58.34 300.581 58.452 300.581 58.774V67.09C300.581 67.454 300.707 67.566 301.071 67.65ZM313.547 57.864V58.214C313.015 58.368 312.525 58.746 312.203 59.18L309.025 64.29V67.076C309.025 67.468 309.123 67.552 309.487 67.65V68H306.127V67.65C306.477 67.552 306.589 67.454 306.589 67.076V64.514L303.467 59.18C303.131 58.704 302.655 58.34 302.053 58.214V57.864H306.295V58.214C305.805 58.298 305.735 58.648 305.973 58.984L307.961 62.47L310.075 58.984C310.327 58.634 310.173 58.284 309.767 58.214V57.864H313.547ZM323.973 64.822C323.973 67.384 320.781 68.238 318.751 68.238C317.323 68.238 315.937 68.056 314.635 67.44C314.355 67.314 314.117 67.272 313.921 67.538L313.515 67.37L314.621 64.864L315.013 65.004C314.957 65.186 314.985 65.396 315.167 65.536C315.993 66.152 317.771 66.432 318.821 66.432C319.619 66.432 321.537 66.236 321.537 65.102C321.537 64.458 320.683 64.01 318.961 63.926C317.589 63.884 315.839 63.87 314.705 63.016C314.089 62.554 313.809 61.854 313.809 61.014C313.809 58.984 315.727 57.626 318.583 57.626C319.759 57.626 321.075 57.808 322.475 58.41C322.979 58.648 323.175 58.69 323.483 58.452L323.805 58.62L322.545 61.042L322.167 60.86C322.167 60.65 322.111 60.51 321.957 60.342C321.173 59.6 319.619 59.348 318.583 59.348C317.827 59.348 316.105 59.572 316.105 60.65C316.105 61.658 317.379 61.854 318.107 61.882C319.479 61.98 320.669 61.952 321.817 62.316C322.993 62.708 323.973 63.576 323.973 64.822ZM335.383 57.528V60.174H335.033C334.963 59.824 334.837 59.684 334.473 59.684H331.351V67.076C331.351 67.468 331.463 67.552 331.827 67.65V68H328.677V67.65C329.041 67.58 329.167 67.426 329.167 67.076V59.684H326.045C325.667 59.684 325.569 59.796 325.485 60.16H325.135V57.528H325.485C325.569 57.878 325.681 57.864 326.045 57.864H334.473C334.851 57.864 334.949 57.892 335.033 57.528H335.383ZM346.268 65.718V68.336H345.932C345.876 68.098 345.82 68 345.372 68H336.776V67.65C337.126 67.552 337.252 67.468 337.252 67.076V58.774C337.252 58.396 337.14 58.298 336.776 58.214V57.864H345.246C345.638 57.864 345.75 57.864 345.806 57.528H346.156V60.146H345.806C345.736 59.838 345.652 59.67 345.33 59.67H339.464V62.064H342.936C343.328 62.064 343.398 61.98 343.51 61.602H343.846V64.178H343.51C343.426 63.814 343.314 63.702 342.936 63.702H339.464V66.18H345.358C345.75 66.18 345.848 66.082 345.932 65.718H346.268ZM356.015 60.944C356.015 59.572 354.349 59.6 353.369 59.6H350.443V62.386H353.439C354.461 62.386 356.015 62.33 356.015 60.944ZM358.731 67.65V68H355.007V67.65C355.189 67.622 355.371 67.538 355.371 67.328C355.371 67.174 355.259 66.992 355.147 66.852L353.075 64.066H350.443V67.09C350.443 67.468 350.569 67.566 350.933 67.65V68H347.741V67.65C348.105 67.566 348.217 67.454 348.217 67.09V58.774C348.217 58.396 348.105 58.298 347.741 58.214V57.864H353.943C355.847 57.864 358.143 58.424 358.143 60.79C358.143 62.526 357.009 63.506 355.385 63.87L357.471 66.684C357.821 67.16 358.199 67.482 358.731 67.65ZM369.985 57.864V58.214C369.453 58.368 368.963 58.746 368.641 59.18L365.463 64.29V67.076C365.463 67.468 365.561 67.552 365.925 67.65V68H362.565V67.65C362.915 67.552 363.027 67.454 363.027 67.076V64.514L359.905 59.18C359.569 58.704 359.093 58.34 358.491 58.214V57.864H362.733V58.214C362.243 58.298 362.173 58.648 362.411 58.984L364.399 62.47L366.513 58.984C366.765 58.634 366.611 58.284 366.205 58.214V57.864H369.985ZM387.084 62.932C387.084 66.278 384.158 68.336 380.952 68.336C377.774 68.336 374.876 66.236 374.876 62.932C374.876 59.53 377.872 57.528 381.106 57.528C384.256 57.528 387.084 59.67 387.084 62.932ZM384.97 62.932C384.97 60.72 383.178 59.208 380.952 59.208C378.754 59.208 376.99 60.72 376.99 62.932C376.99 65.116 378.754 66.656 380.952 66.656C383.178 66.656 384.97 65.144 384.97 62.932ZM398.044 57.528V60.146H397.694C397.61 59.796 397.526 59.67 397.204 59.67H391.268V61.896H394.81C395.258 61.896 395.3 61.798 395.37 61.434H395.72V63.996H395.37C395.314 63.646 395.216 63.548 394.81 63.548H391.268V67.09C391.268 67.496 391.394 67.58 391.744 67.65V68H388.552V67.65C388.902 67.552 389.028 67.468 389.028 67.076V58.774C389.028 58.396 388.916 58.298 388.552 58.214V57.864H397.134C397.512 57.864 397.624 57.864 397.694 57.528H398.044ZM230.766 72.528V75.174H230.416C230.346 74.824 230.22 74.684 229.856 74.684H226.734V82.076C226.734 82.468 226.846 82.552 227.21 82.65V83H224.06V82.65C224.424 82.58 224.55 82.426 224.55 82.076V74.684H221.428C221.05 74.684 220.952 74.796 220.868 75.16H220.518V72.528H220.868C220.952 72.878 221.064 72.864 221.428 72.864H229.856C230.234 72.864 230.332 72.892 230.416 72.528H230.766ZM241.651 80.718V83.336H241.315C241.259 83.098 241.203 83 240.755 83H232.159V82.65C232.509 82.552 232.635 82.468 232.635 82.076V73.774C232.635 73.396 232.523 73.298 232.159 73.214V72.864H240.629C241.021 72.864 241.133 72.864 241.189 72.528H241.539V75.146H241.189C241.119 74.838 241.035 74.67 240.713 74.67H234.847V77.064H238.319C238.711 77.064 238.781 76.98 238.893 76.602H239.229V79.178H238.893C238.809 78.814 238.697 78.702 238.319 78.702H234.847V81.18H240.741C241.133 81.18 241.231 81.082 241.315 80.718H241.651ZM252.85 79.402L254.362 81.74L254.082 81.922C253.928 81.81 253.788 81.712 253.676 81.782C252.248 82.692 250.442 83.308 248.538 83.308C245.136 83.308 242.574 81.026 242.574 77.96C242.574 74.852 245.052 72.584 248.79 72.584C250.75 72.584 252.654 73.396 253.088 73.536C253.256 73.592 253.536 73.606 253.69 73.452L253.984 73.648L252.486 76.056L252.178 75.874L252.248 75.692C252.248 75.132 250.428 74.362 248.734 74.362C246.424 74.362 244.828 75.846 244.828 77.848C244.828 79.99 246.424 81.544 248.79 81.544C250.442 81.544 252.178 80.592 252.57 80.102C252.682 79.962 252.626 79.752 252.556 79.584L252.85 79.402ZM266.554 82.65V83H263.39V82.65C263.74 82.566 263.852 82.482 263.852 82.076V78.786H258.322V82.076C258.322 82.468 258.406 82.538 258.798 82.65V83H255.62V82.65C256.012 82.538 256.096 82.468 256.096 82.076V73.774C256.096 73.41 256.012 73.298 255.62 73.214V72.864H258.798V73.214C258.42 73.298 258.322 73.424 258.322 73.774V76.994H263.852V73.774C263.852 73.382 263.782 73.298 263.39 73.214V72.864H266.554V73.214C266.176 73.298 266.092 73.396 266.092 73.774V82.076C266.092 82.454 266.148 82.552 266.554 82.65ZM279.11 82.65V83H276.072V82.65C276.534 82.594 276.338 82.202 276.058 81.894L270.388 76.014V82.09C270.388 82.44 270.444 82.524 270.85 82.65V83H267.952V82.65C268.372 82.552 268.428 82.426 268.428 82.09V73.774C268.428 73.41 268.344 73.298 267.952 73.214V72.864H271.326V73.214C271.158 73.242 271.074 73.326 271.074 73.508C271.074 73.69 271.186 73.844 271.312 73.956L276.702 79.64V73.774C276.702 73.438 276.702 73.354 276.226 73.214V72.864H279.11V73.214C278.69 73.34 278.648 73.452 278.648 73.774V82.09C278.648 82.44 278.732 82.566 279.11 82.65ZM292.817 77.932C292.817 81.278 289.891 83.336 286.685 83.336C283.507 83.336 280.609 81.236 280.609 77.932C280.609 74.53 283.605 72.528 286.839 72.528C289.989 72.528 292.817 74.67 292.817 77.932ZM290.703 77.932C290.703 75.72 288.911 74.208 286.685 74.208C284.487 74.208 282.723 75.72 282.723 77.932C282.723 80.116 284.487 81.656 286.685 81.656C288.911 81.656 290.703 80.144 290.703 77.932ZM302.642 80.704V83.336H302.292C302.222 83.056 302.11 83 301.732 83H294.284V82.65C294.634 82.566 294.76 82.468 294.76 82.09V73.788C294.76 73.424 294.606 73.312 294.284 73.214V72.864H297.476V73.214C297.112 73.312 297.028 73.396 297.028 73.788V81.194H301.732C302.096 81.194 302.222 81.054 302.292 80.704H302.642ZM315.498 77.932C315.498 81.278 312.572 83.336 309.366 83.336C306.188 83.336 303.29 81.236 303.29 77.932C303.29 74.53 306.286 72.528 309.52 72.528C312.67 72.528 315.498 74.67 315.498 77.932ZM313.384 77.932C313.384 75.72 311.592 74.208 309.366 74.208C307.168 74.208 305.404 75.72 305.404 77.932C305.404 80.116 307.168 81.656 309.366 81.656C311.592 81.656 313.384 80.144 313.384 77.932ZM326.029 80.928V79.066H324.083C323.705 79.066 323.565 79.024 323.439 79.388H323.117V77.022H323.453C323.523 77.358 323.719 77.358 324.083 77.358H328.773V77.708C328.409 77.75 328.115 77.862 328.115 78.352V80.788C328.115 81.18 328.269 81.362 328.605 81.362V81.754C327.191 82.79 324.951 83.308 323.089 83.308C319.967 83.308 317.181 81.362 317.181 77.932C317.181 74.488 320.149 72.584 323.313 72.584C324.643 72.584 326.099 72.976 327.345 73.382C327.625 73.48 327.779 73.396 327.863 73.27L328.213 73.424L326.953 75.874L326.631 75.72C326.687 75.412 326.393 75.146 326.071 74.95C325.189 74.446 324.139 74.292 323.159 74.292C321.031 74.292 319.435 75.748 319.435 77.96C319.435 80.2 321.395 81.586 323.411 81.586C324.377 81.586 325.287 81.362 326.029 80.928ZM340.618 72.864V73.214C340.086 73.368 339.596 73.746 339.274 74.18L336.096 79.29V82.076C336.096 82.468 336.194 82.552 336.558 82.65V83H333.198V82.65C333.548 82.552 333.66 82.454 333.66 82.076V79.514L330.538 74.18C330.202 73.704 329.726 73.34 329.124 73.214V72.864H333.366V73.214C332.876 73.298 332.806 73.648 333.044 73.984L335.032 77.47L337.146 73.984C337.398 73.634 337.244 73.284 336.838 73.214V72.864H340.618Z" fill="white"/>
<defs>
<filter id="filter0_i_0_1" x="0.3125" y="0.46875" width="326.375" height="71.9688" filterUnits="userSpaceOnUse" color-interpolation-filters="sRGB">
<feFlood flood-opacity="0" result="BackgroundImageFix"/>
<feBlend mode="normal" in="SourceGraphic" in2="BackgroundImageFix" result="shape"/>
<feColorMatrix in="SourceAlpha" type="matrix" values="0 0 0 0 0 0 0 0 0 0 0 0 0 0 0 0 0 0 127 0" result="hardAlpha"/>
<feOffset dy="4"/>
<feGaussianBlur stdDeviation="2"/>
<feComposite in2="hardAlpha" operator="arithmetic" k2="-1" k3="1"/>
<feColorMatrix type="matrix" values="0 0 0 0 0 0 0 0 0 0 0 0 0 0 0 0 0 0 0.25 0"/>
<feBlend mode="normal" in2="shape" result="effect1_innerShadow_0_1"/>
</filter>
</defs>
</svg>
